<svg xmlns="http://www.w3.org/2000/svg" enable-background="new 0 0 512 512" viewBox="0 0 512 512"><path fill="#354b87" d="M350.3,10.5H161.7C78,10.5,10,78.5,10,162.2v240c0,55.3,45,100.3,100.3,100.3h291.4
			c55.3,0,100.3-45,100.3-100.3v-240C502,78.5,434,10.5,350.3,10.5z M487,402.2c0,47-38.3,85.3-85.3,85.3H110.3
			c-47,0-85.3-38.3-85.3-85.3v-240C25,86.8,86.3,25.5,161.7,25.5h188.7c75.4,0,136.7,61.3,136.7,136.7V402.2z"/><path fill="#354b87" d="M255.5 316.8c4.1 0 7.5-3.4 7.5-7.5V215c0-4.1-3.4-7.5-7.5-7.5-4.1 0-7.5 3.4-7.5 7.5v94.3C248 313.4 251.4 316.8 255.5 316.8zM256 336.9c-4.1 0-7.5 3.4-7.5 7.5v113c0 4.1 3.4 7.5 7.5 7.5 4.1 0 7.5-3.4 7.5-7.5v-113C263.5 340.3 260.1 336.9 256 336.9z"/><path fill="#5c77ff" d="M267.9 45.6l-11.2 34.7-12.3-34.7c1.2-.2 2.3-.3 3.5-.4 2.7-.2 5.4-.4 8.1-.4 2.9 0 5.7.1 8.4.4C265.6 45.4 266.8 45.5 267.9 45.6zM256 128.2c-3.4 0-6.2-2.8-6.2-6.2v-18c0-3.4 2.8-6.2 6.2-6.2 3.4 0 6.2 2.8 6.2 6.2v18C262.2 125.4 259.4 128.2 256 128.2z"/><path fill="#485eff" d="M199.1,143.5c-1.8,0-3.7-0.8-4.9-2.4l-6.4-8.2c-2.1-2.7-1.6-6.6,1.1-8.7c2.7-2.1,6.6-1.6,8.7,1.1l6.4,8.2
				c2.1,2.7,1.6,6.6-1.1,8.7C201.8,143,200.5,143.5,199.1,143.5z" opacity=".3"/><path fill="#b3c3ff" d="M216.5,135.3c-2.3,0-4.6-1.3-5.6-3.6l-4.8-10.5c-1.4-3.1-0.1-6.8,3-8.2c3.1-1.4,6.8-0.1,8.2,3l4.8,10.5
				c1.4,3.1,0.1,6.8-3,8.2C218.2,135.1,217.3,135.3,216.5,135.3z"/><path fill="#859fff" d="M235.5,130c-2.8,0-5.4-2-6-4.9l-3-14.1c-0.7-3.3,1.4-6.6,4.7-7.3c3.3-0.7,6.6,1.4,7.3,4.7l3,14.1
				c0.7,3.3-1.4,6.6-4.7,7.3C236.4,130,236,130,235.5,130z"/><path fill="#485eff" d="M312.9,143.5c-1.3,0-2.7-0.4-3.8-1.3c-2.7-2.1-3.2-6-1.1-8.7l6.4-8.2c2.1-2.7,6-3.2,8.7-1.1
				c2.7,2.1,3.2,6,1.1,8.7l-6.4,8.2C316.5,142.6,314.7,143.5,312.9,143.5z" opacity=".3"/><path fill="#b3c3ff" d="M295.5,135.3c-0.9,0-1.7-0.2-2.6-0.6c-3.1-1.4-4.5-5.1-3-8.2l4.8-10.5c1.4-3.1,5.1-4.5,8.2-3
				c3.1,1.4,4.5,5.1,3,8.2l-4.8,10.5C300.1,133.9,297.9,135.3,295.5,135.3z"/><path fill="#859fff" d="M276.5,130c-0.4,0-0.9,0-1.3-0.1c-3.3-0.7-5.4-4-4.7-7.3l3-14.1c0.7-3.3,4-5.4,7.3-4.7
				c3.3,0.7,5.4,4,4.7,7.3l-3,14.1C281.9,128,279.3,130,276.5,130z"/><path fill="#354b87" d="M268.7,39.5c-1.2-0.2-2.5-0.3-3.7-0.4c-5.7-0.6-11.9-0.6-17.7,0c-1.3,0.1-2.5,0.3-3.8,0.4
			c-47,6.1-82.5,46.6-82.5,94.1c0,19.6,5.9,38.5,17.2,54.5c1,1.5,2.6,2.4,4.4,2.6c0.2,0,0.4,0,0.6,0c1.6,0,3.1-0.6,4.2-1.7
			c18.8-17.5,43.2-27.1,68.9-27.1c25.4,0,49.7,9.5,68.4,26.7c1.3,1.2,3.1,1.8,4.9,1.6c1.8-0.2,3.4-1.2,4.4-2.6
			c11-15.9,16.9-34.6,16.9-54C350.9,86.3,315.6,45.8,268.7,39.5z M327.6,174.8c-20.1-16.3-45.2-25.1-71.2-25.1
			c-26.3,0-51.5,9-71.8,25.6c-7.4-12.6-11.2-26.9-11.2-41.6c0-41.3,30.9-76.6,71.8-81.9c1.1-0.1,2.2-0.3,3.3-0.4
			c2.5-0.2,5-0.3,7.5-0.3c2.7,0,5.3,0.1,7.9,0.4c1.1,0.1,2.2,0.2,3.2,0.4c40.8,5.5,71.5,40.7,71.5,81.9
			C338.6,148.2,334.8,162.3,327.6,174.8z"/><g><path fill="#485eff" d="M127.7 464.9L127.7 464.9c-24.5 0-45.5-14.9-54.4-36.2-4.7-11.2-3.9-24 1.7-34.8l0 0c9.2-17.5 12.4-37.4 9.2-56.9l-14.1-86.7c-4-24.5 7.6-49.3 29.4-61.1 8.4-4.5 17.9-7.1 28.1-7.1h0c7.5 0 14.7 1.4 21.4 4 28.6 11.1 39.6 45.6 23.9 72.1-6 10.2-11.8 24.9-11.8 43.8 0 48.7 8.5 75.8 15.7 90 10.2 20.2 5.8 45-11.7 59.4C155.1 459.8 142 464.9 127.7 464.9zM384.3 464.9L384.3 464.9c24.5 0 45.5-14.9 54.4-36.2 4.7-11.2 3.9-24-1.7-34.8l0 0c-9.2-17.5-12.4-37.4-9.2-56.9l14.1-86.7c4-24.5-7.6-49.3-29.4-61.1-8.4-4.5-17.9-7.1-28.1-7.1h0c-7.5 0-14.7 1.4-21.4 4-28.6 11.1-39.6 45.6-23.9 72.1 6 10.2 11.8 24.9 11.8 43.8 0 48.7-8.5 75.8-15.7 90-10.2 20.2-5.8 45 11.7 59.4C356.9 459.8 370 464.9 384.3 464.9z" enable-background="new" opacity=".14"/></g></svg>