<svg xmlns="http://www.w3.org/2000/svg" width="512" height="512" viewBox="0 0 512 512"><g fill="none" fill-rule="evenodd" transform="translate(0 79)"><polygon fill="#FEFEFE" points="163.571 197.18 348.329 197.18 348.329 153.555 163.571 153.555"/><g transform="translate(0 .992)"><path fill="#2E2E30" d="M173.889719,185.890878 L338.024179,185.890878 L338.024179,162.860238 L173.889719,162.860238 L173.889719,185.890878 Z M348.336291,206.484594 L163.577606,206.484594 C157.88532,206.484594 153.265493,201.878466 153.265493,196.187736 L153.265493,152.56338 C153.265493,146.879515 157.88532,142.266522 163.577606,142.266522 L348.336291,142.266522 C354.028578,142.266522 358.648404,146.879515 358.648404,152.56338 L358.648404,196.187736 C358.648404,201.878466 354.028578,206.484594 348.336291,206.484594 L348.336291,206.484594 Z"/><polygon fill="#829DC5" points="350.206 336.191 400.667 336.191 400.667 12.56 350.206 12.56"/><polygon fill="#CDE4F6" points="400.667 302.657 451.127 302.657 451.127 46.094 400.667 46.094"/><polygon fill="#829DC5" points="451.134 259.095 501.595 259.095 501.595 89.656 451.134 89.656"/><polygon fill="#829DC5" points="111.24 336.191 161.701 336.191 161.701 12.56 111.24 12.56"/><polygon fill="#CDE4F6" points="60.78 302.657 111.24 302.657 111.24 46.094 60.78 46.094"/><polygon fill="#829DC5" points="10.312 259.095 60.773 259.095 60.773 89.656 10.312 89.656"/><polygon fill="#010202" points="111.24 336.191 161.701 336.191 161.701 302.657 111.24 302.657" opacity=".3"/><polygon fill="#010202" points="350.206 336.191 400.667 336.191 400.667 302.657 350.206 302.657" opacity=".3"/><polygon fill="#010202" points="60.78 302.664 111.24 302.664 111.24 269.131 60.78 269.131" opacity=".3"/><polygon fill="#010202" points="402.544 302.664 453.004 302.664 453.004 269.131 402.544 269.131" opacity=".3"/><polygon fill="#010202" points="10.312 259.102 60.773 259.102 60.773 225.568 10.312 225.568" opacity=".3"/><polygon fill="#010202" points="453.011 259.102 503.472 259.102 503.472 225.568 453.011 225.568" opacity=".3"/><path fill="#2E2E30" d="M360.518334,325.893824 L390.354713,325.893824 L390.354713,22.8572914 L360.518334,22.8572914 L360.518334,325.893824 Z M400.666826,346.487541 L350.206221,346.487541 C344.513935,346.487541 339.894109,341.874548 339.894109,336.190683 L339.894109,12.5604334 C339.894109,6.87656771 344.513935,2.2635753 350.206221,2.2635753 L400.666826,2.2635753 C406.359112,2.2635753 410.978939,6.87656771 410.978939,12.5604334 L410.978939,336.190683 C410.978939,341.874548 406.359112,346.487541 400.666826,346.487541 L400.666826,346.487541 Z"/><path fill="#2E2E30" d="M410.978939,292.36039 L440.822193,292.36039 L440.822193,56.3907259 L410.978939,56.3907259 L410.978939,292.36039 Z M451.134305,312.954106 L400.666826,312.954106 C394.97454,312.954106 390.354713,308.341114 390.354713,302.657248 L390.354713,46.0938678 C390.354713,40.4100022 394.97454,35.7970098 400.666826,35.7970098 L451.134305,35.7970098 C456.826592,35.7970098 461.446418,40.4100022 461.446418,46.0938678 L461.446418,302.657248 C461.446418,308.341114 456.826592,312.954106 451.134305,312.954106 L451.134305,312.954106 Z"/><path fill="#2E2E30" d="M461.446418 248.80468L491.282797 248.80468 491.282797 99.9533001 461.446418 99.9533001 461.446418 248.80468zM501.59491 269.398397L451.134305 269.398397C445.442019 269.398397 440.822193 264.785404 440.822193 259.101538L440.822193 89.656442C440.822193 83.9725764 445.442019 79.359584 451.134305 79.359584L501.59491 79.359584C507.287196 79.359584 511.907023 83.9725764 511.907023 89.656442L511.907023 259.101538C511.907023 264.785404 507.287196 269.398397 501.59491 269.398397L501.59491 269.398397zM121.552309 325.893824L151.395564 325.893824 151.395564 22.8572914 121.552309 22.8572914 121.552309 325.893824zM161.700802 346.487541L111.240197 346.487541C105.547911 346.487541 100.928084 341.874548 100.928084 336.190683L100.928084 12.5604334C100.928084 6.87656771 105.547911 2.2635753 111.240197 2.2635753L161.700802 2.2635753C167.399962 2.2635753 172.012914 6.87656771 172.012914 12.5604334L172.012914 336.190683C172.012914 341.874548 167.399962 346.487541 161.700802 346.487541L161.700802 346.487541z"/><path fill="#2E2E30" d="M71.08483,292.36039 L100.928084,292.36039 L100.928084,56.3907259 L71.08483,56.3907259 L71.08483,292.36039 Z M111.240197,312.954106 L60.7727174,312.954106 C55.0804312,312.954106 50.4606047,308.341114 50.4606047,302.657248 L50.4606047,46.0938678 C50.4606047,40.4100022 55.0804312,35.7970098 60.7727174,35.7970098 L111.240197,35.7970098 C116.932483,35.7970098 121.552309,40.4100022 121.552309,46.0938678 L121.552309,302.657248 C121.552309,308.341114 116.932483,312.954106 111.240197,312.954106 L111.240197,312.954106 Z"/><path fill="#2E2E30" d="M20.6242254,248.80468 L50.4606047,248.80468 L50.4606047,99.9533001 L20.6242254,99.9533001 L20.6242254,248.80468 Z M60.7727174,269.398397 L10.3121127,269.398397 C4.61982648,269.398397 0,264.785404 0,259.101538 L0,89.656442 C0,83.9725764 4.61982648,79.359584 10.3121127,79.359584 L60.7727174,79.359584 C66.4650036,79.359584 71.08483,83.9725764 71.08483,89.656442 L71.08483,259.101538 C71.08483,264.785404 66.4650036,269.398397 60.7727174,269.398397 L60.7727174,269.398397 Z"/></g></g></svg>